<?xml version="1.0" encoding="UTF-8" standalone="no"?>
<!DOCTYPE svg PUBLIC "-//W3C//DTD SVG 1.1//EN" "http://www.w3.org/Graphics/SVG/1.1/DTD/svg11.dtd">
<svg width="100%" height="100%" viewBox="0 0 1920 900" version="1.1" xmlns="http://www.w3.org/2000/svg" xmlns:xlink="http://www.w3.org/1999/xlink" xml:space="preserve" xmlns:serif="http://www.serif.com/" style="fill-rule:evenodd;clip-rule:evenodd;stroke-linecap:round;stroke-linejoin:round;stroke-miterlimit:1.5;">
    <g transform="matrix(0.961741,0,0,0.771711,36.7288,33.276)">
        <path d="M1920,109.565L1920,970.435C1920,1030.9 1880.61,1080 1832.08,1080L87.916,1080C39.394,1080 0,1030.9 0,970.435L0,109.565C0,49.095 39.394,0 87.916,0L1832.08,0C1880.61,0 1920,49.095 1920,109.565Z" style="fill:rgb(33,28,34);stroke:rgb(28,30,34);stroke-width:1.15px;"/>
    </g>
    <g transform="matrix(1,0,0,1,8.4388,16.8776)">
        <circle cx="1741.56" cy="497.978" r="16.878" style="fill:rgb(255,166,213);stroke:rgb(255,166,213);stroke-width:2.93px;"/>
    </g>
    <g transform="matrix(1,0,0,1,28,26.9778)">
        <circle cx="1616" cy="450" r="14" style="fill:rgb(255,166,213);stroke:rgb(255,166,213);stroke-width:2.93px;"/>
    </g>
    <g transform="matrix(1,0,0,1,6.69999,-12.0222)">
        <path d="M1728.89,413.438C1730.61,414.283 1732.42,414.963 1734.04,415.974C1735.5,416.881 1743.83,422.064 1746.6,433.397C1747.94,438.914 1747.22,443.514 1747.09,444.384C1746.43,448.554 1746.38,448.574 1744.39,452.3C1732.63,474.333 1715.76,499.343 1698.37,514.776C1696.35,516.57 1695.03,517.772 1694.99,517.802C1690.58,521.031 1685.87,521.269 1685.03,521.312C1684.18,521.354 1679.47,521.592 1674.78,518.821C1674.27,518.521 1671.55,516.911 1669.31,513.874C1666.06,509.47 1665.82,504.758 1665.78,503.914C1665.74,503.07 1665.5,498.358 1668.29,493.662C1668.51,493.293 1668.81,493.505 1671.36,489.26C1678.28,477.77 1686.51,457.742 1692.23,430.673C1692.89,427.549 1693.2,427.653 1694.89,424.945C1695.8,423.489 1700.97,415.187 1712.33,412.453C1717.85,411.122 1722.47,411.85 1723.34,411.987L1728.89,413.438Z" style="fill:rgb(255,166,213);"/>
    </g>
    <g transform="matrix(-0.564663,-0.825322,0.825322,-0.564663,1059.55,2225.25)">
        <path d="M1767.7,463.018C1768.14,464.243 1768.71,465.432 1769.02,466.694C1770.43,472.266 1768.82,476.924 1768.53,477.761C1768.24,478.592 1766.63,483.254 1762.11,486.675C1759.77,488.45 1759.71,488.407 1756.9,489.261C1746.7,492.353 1704.05,504.434 1681.28,526.56C1679.88,527.922 1679.9,527.977 1678.12,528.778C1677.64,528.995 1674.8,530.271 1671.52,529.25C1671.51,529.245 1668.66,527.686 1668.65,527.679C1668,526.807 1667.16,526.044 1666.69,525.059C1665.2,521.95 1666.07,518.971 1666.21,518.463C1666.82,516.376 1666.92,516.406 1668.25,514.679C1685.32,492.338 1714.76,472.205 1740.5,454.875C1742.95,453.227 1742.95,453.153 1745.81,452.449C1751.31,451.098 1755.95,452.785 1756.78,453.086C1757.61,453.389 1762.24,455.072 1765.68,459.676L1767.7,463.018Z" style="fill:rgb(234,243,145);"/>
    </g>
    <g transform="matrix(2.14583,0,0,2.14583,-54.1489,-635.992)">
        <clipPath id="_clip1">
            <path d="M213.239,646.356C197.84,646.356 184.528,642.599 173.304,635.085C162.079,627.571 153.544,617.089 147.7,603.638C141.856,590.187 138.934,574.648 138.934,557.023C138.934,534.573 143.665,510.454 153.127,484.665C161.29,462.401 172.098,442.225 185.549,424.135C199,406.046 213.703,391.806 229.659,381.416C245.615,371.027 261.2,365.832 276.413,365.832C288.102,365.832 298.028,368.383 306.191,373.485C314.355,378.587 320.431,385.359 324.42,393.801C328.409,402.242 330.403,411.38 330.403,421.213C330.403,433.087 327.713,444.544 322.332,455.583C316.952,466.622 309.067,475.62 298.677,482.578C288.287,489.535 276.042,493.014 261.942,493.014C256.561,493.014 252.479,491.576 249.696,488.7C246.914,485.825 245.522,482.439 245.522,478.543C245.522,474.646 246.774,471.214 249.279,468.245C251.784,465.277 254.984,463.793 258.88,463.793C268.342,463.793 276.32,461.891 282.814,458.088C289.308,454.284 294.131,449.368 297.286,443.338C300.44,437.308 302.017,431.046 302.017,424.553C302.017,416.389 299.744,409.432 295.198,403.68C290.653,397.929 284.391,395.053 276.413,395.053C266.394,395.053 255.355,399.413 243.296,408.133C231.236,416.853 219.64,429.052 208.508,444.729C197.376,460.407 188.285,478.171 181.235,498.023C173.443,519.545 169.547,539.212 169.547,557.023C169.547,575.761 173.767,590.465 182.209,601.133C190.651,611.801 201.922,617.135 216.022,617.135C229.752,617.135 242.832,612.404 255.262,602.942C267.693,593.48 277.897,579.936 285.875,562.31C287.174,559.342 289.029,557.069 291.441,555.492C293.853,553.915 296.451,553.126 299.234,553.126C303.13,553.126 306.655,554.564 309.809,557.44C312.963,560.316 314.54,563.795 314.54,567.876C314.54,570.474 314.076,572.7 313.149,574.555C303.501,596.819 290.421,614.352 273.908,627.154C257.396,639.956 237.173,646.356 213.239,646.356ZM344.04,646.356C321.961,646.356 305.356,640.512 294.224,628.824C285.319,618.805 280.866,606.374 280.866,591.532C280.866,589.862 281.051,586.986 281.423,582.904C282.907,568.433 287.87,553.729 296.311,538.794C304.753,523.859 315.375,511.521 328.177,501.78C340.978,492.04 354.522,487.17 368.808,487.17C380.682,487.17 389.959,490.556 396.638,497.328C403.317,504.1 406.657,512.495 406.657,522.514C406.657,528.451 405.358,534.573 402.761,540.881C400.163,547.189 396.453,553.034 391.629,558.414C384.022,566.949 375.255,573.257 365.33,577.338C355.404,581.42 345.802,583.461 336.526,583.461C330.96,583.461 326.321,582.812 322.611,581.513C321.126,581.142 320.013,580.956 319.271,580.956C316.674,580.956 314.726,582.116 313.427,584.435C312.128,586.754 311.479,589.769 311.479,593.48C311.479,600.901 314.401,606.931 320.245,611.569C326.089,616.207 334.021,618.527 344.04,618.527C359.81,618.527 374.467,613.239 388.011,602.664C401.555,592.088 412.594,577.617 421.128,559.249C422.798,555.909 424.885,553.405 427.39,551.735C429.895,550.065 432.631,549.23 435.6,549.23C439.496,549.23 442.928,550.575 445.897,553.266C448.865,555.956 450.35,559.342 450.35,563.424C450.35,565.65 449.793,568.062 448.68,570.659C438.29,594.222 424.329,612.729 406.796,626.18C389.263,639.631 368.344,646.356 344.04,646.356ZM339.865,557.023C346.359,557.023 352.296,555.678 357.676,552.987C363.057,550.297 367.695,546.726 371.591,542.273C376.972,536.336 379.662,530.677 379.662,525.297C379.662,521.957 378.595,519.267 376.461,517.226C374.328,515.185 371.406,514.165 367.695,514.165C360.459,514.165 352.945,518.061 345.153,525.853C337.361,533.646 331.423,541.252 327.342,548.674C326.414,550.529 325.95,551.735 325.95,552.292C325.95,555.446 330.589,557.023 339.865,557.023ZM450.35,646.356C437.362,646.356 426.88,642.228 418.902,633.972C410.924,625.716 406.935,615.373 406.935,602.942C406.935,594.964 408.79,586.708 412.501,578.173L496.269,394.775C498.866,389.023 502.948,386.147 508.514,386.147C512.41,386.147 515.935,387.585 519.089,390.461C522.243,393.337 523.821,396.908 523.821,401.176C523.821,403.402 523.449,405.35 522.707,407.02L440.331,590.14C438.476,594.222 437.548,597.933 437.548,601.272C437.548,605.539 438.893,609.064 441.583,611.847C444.274,614.63 448.216,616.022 453.411,616.022C461.76,616.022 470.155,612.079 478.597,604.194C487.039,596.309 495.62,582.904 504.34,563.98C505.638,561.012 507.447,558.832 509.766,557.44C512.086,556.049 514.637,555.353 517.42,555.353C521.501,555.353 525.166,556.698 528.412,559.388C531.659,562.078 533.283,565.464 533.283,569.546C533.283,571.216 532.819,573.257 531.891,575.669C521.501,599.417 508.885,617.135 494.043,628.824C479.2,640.512 464.636,646.356 450.35,646.356ZM570.296,470.472C565.658,470.472 561.762,468.848 558.608,465.602C555.454,462.355 553.877,458.505 553.877,454.052C553.877,449.599 555.5,445.75 558.747,442.503C561.994,439.256 565.844,437.633 570.296,437.633C574.749,437.633 578.599,439.256 581.846,442.503C585.093,445.75 586.716,449.599 586.716,454.052C586.716,458.505 585.093,462.355 581.846,465.602C578.599,468.848 574.749,470.472 570.296,470.472ZM535.509,646.356C526.789,646.356 519.136,644.408 512.549,640.512C505.963,636.616 500.861,631.375 497.243,624.788C493.625,618.202 491.816,610.92 491.816,602.942C491.816,594.779 493.764,586.522 497.66,578.173L536.901,494.962C539.498,489.211 543.672,486.335 549.424,486.335C553.32,486.335 556.799,487.773 559.86,490.648C562.921,493.524 564.452,497.096 564.452,501.363C564.452,503.589 564.081,505.537 563.339,507.207L525.49,590.14C523.635,594.222 522.707,597.933 522.707,601.272C522.707,605.539 524.052,609.064 526.743,611.847C529.433,614.63 533.375,616.022 538.57,616.022C546.919,616.022 555.315,612.079 563.756,604.194C572.198,596.309 580.779,582.904 589.499,563.98C590.798,561.012 592.607,558.832 594.926,557.44C597.245,556.049 599.796,555.353 602.579,555.353C606.661,555.353 610.325,556.698 613.572,559.388C616.819,562.078 618.442,565.464 618.442,569.546C618.442,571.216 617.978,573.257 617.051,575.669C606.475,599.417 593.813,617.135 579.063,628.824C564.313,640.512 549.795,646.356 535.509,646.356ZM777.35,563.98C778.649,561.012 780.458,558.832 782.777,557.44C785.096,556.049 787.647,555.353 790.43,555.353C794.512,555.353 798.176,556.698 801.423,559.388C804.67,562.078 806.293,565.464 806.293,569.546C806.293,571.216 805.83,573.257 804.902,575.669C794.327,599.417 781.664,617.135 766.914,628.824C752.164,640.512 737.647,646.356 723.361,646.356C714.641,646.356 706.941,644.408 700.262,640.512C693.583,636.616 688.573,631.328 685.234,624.649C679.853,629.473 673.916,633.74 667.423,637.451C660.001,641.718 652.858,644.316 645.994,645.243C643.953,645.614 640.891,645.8 636.81,645.8C628.646,645.8 621.225,644.13 614.546,640.791C606.011,636.338 599.379,629.38 594.647,619.918C589.916,610.456 587.551,599.602 587.551,587.357C587.551,574.927 590.009,562.496 594.926,550.065C599.842,537.635 606.522,526.363 614.963,516.252C623.405,506.14 632.821,498.209 643.211,492.457C653.6,486.706 663.805,483.83 673.823,483.83C681.616,483.83 688.944,485.685 695.809,489.396C704.9,494.406 711.858,502.012 716.681,512.217L724.752,494.962C726.051,491.994 727.813,489.767 730.04,488.283C732.266,486.799 734.585,486.057 736.997,486.057C740.893,486.057 744.372,487.494 747.433,490.37C750.495,493.246 752.025,496.817 752.025,501.085C752.025,503.311 751.654,505.259 750.912,506.929L713.063,589.862C711.394,593.387 710.559,597.098 710.559,600.994C710.559,605.261 711.904,608.833 714.594,611.708C717.284,614.584 721.227,616.022 726.422,616.022C734.771,616.022 743.166,612.079 751.608,604.194C760.05,596.309 768.63,582.904 777.35,563.98ZM653.508,612.126C664.825,606.003 674.38,596.263 682.172,582.904C689.965,569.546 693.861,556.281 693.861,543.108C693.861,536.058 692.794,530.167 690.66,525.436C688.527,520.705 685.697,517.597 682.172,516.113C679.76,515 675.4,514.443 669.092,514.443C666.309,514.629 662.32,516.206 657.125,519.174C645.622,525.668 636.021,535.547 628.322,548.813C620.622,562.078 616.772,575.205 616.772,588.192C616.772,595.057 617.793,600.762 619.833,605.307C621.874,609.853 624.75,613.053 628.461,614.909C630.873,616.393 633.748,617.135 637.088,617.135C641.912,617.135 647.385,615.465 653.508,612.126Z" clip-rule="nonzero"/>
        </clipPath>
        <g clip-path="url(#_clip1)">
            <g transform="matrix(278.298,0,0,278.298,138.934,642.182)">
                <path d="M0.267,0.015C0.212,0.015 0.164,0.001 0.124,-0.026C0.083,-0.053 0.053,-0.09 0.032,-0.139C0.011,-0.187 0,-0.243 0,-0.306C0,-0.387 0.017,-0.473 0.051,-0.566C0.08,-0.646 0.119,-0.719 0.168,-0.784C0.216,-0.849 0.269,-0.9 0.326,-0.937C0.383,-0.974 0.439,-0.993 0.494,-0.993C0.536,-0.993 0.572,-0.984 0.601,-0.966C0.63,-0.947 0.652,-0.923 0.667,-0.893C0.681,-0.862 0.688,-0.829 0.688,-0.794C0.688,-0.751 0.678,-0.71 0.659,-0.671C0.64,-0.631 0.611,-0.599 0.574,-0.574C0.537,-0.549 0.493,-0.536 0.442,-0.536C0.423,-0.536 0.408,-0.541 0.398,-0.552C0.388,-0.562 0.383,-0.574 0.383,-0.588C0.383,-0.602 0.388,-0.614 0.397,-0.625C0.406,-0.636 0.417,-0.641 0.431,-0.641C0.465,-0.641 0.494,-0.648 0.517,-0.662C0.54,-0.675 0.558,-0.693 0.569,-0.715C0.58,-0.736 0.586,-0.759 0.586,-0.782C0.586,-0.811 0.578,-0.836 0.562,-0.857C0.545,-0.878 0.523,-0.888 0.494,-0.888C0.458,-0.888 0.418,-0.872 0.375,-0.841C0.332,-0.81 0.29,-0.766 0.25,-0.71C0.21,-0.653 0.177,-0.589 0.152,-0.518C0.124,-0.441 0.11,-0.37 0.11,-0.306C0.11,-0.239 0.125,-0.186 0.156,-0.148C0.186,-0.109 0.226,-0.09 0.277,-0.09C0.326,-0.09 0.373,-0.107 0.418,-0.141C0.463,-0.175 0.499,-0.224 0.528,-0.287C0.533,-0.298 0.539,-0.306 0.548,-0.312C0.557,-0.317 0.566,-0.32 0.576,-0.32C0.59,-0.32 0.603,-0.315 0.614,-0.305C0.625,-0.294 0.631,-0.282 0.631,-0.267C0.631,-0.258 0.629,-0.25 0.626,-0.243C0.591,-0.163 0.544,-0.1 0.485,-0.054C0.426,-0.008 0.353,0.015 0.267,0.015Z" style="fill:rgb(254,190,152);fill-rule:nonzero;"/>
            </g>
            <g transform="matrix(278.298,0,0,278.298,282.814,642.182)">
                <path d="M0.22,0.015C0.141,0.015 0.081,-0.006 0.041,-0.048C0.009,-0.084 -0.007,-0.129 -0.007,-0.182C-0.007,-0.188 -0.006,-0.198 -0.005,-0.213C0,-0.265 0.018,-0.318 0.049,-0.372C0.079,-0.425 0.117,-0.47 0.163,-0.505C0.209,-0.54 0.258,-0.557 0.309,-0.557C0.352,-0.557 0.385,-0.545 0.409,-0.521C0.433,-0.496 0.445,-0.466 0.445,-0.43C0.445,-0.409 0.44,-0.387 0.431,-0.364C0.422,-0.341 0.408,-0.32 0.391,-0.301C0.364,-0.27 0.332,-0.248 0.297,-0.233C0.261,-0.218 0.226,-0.211 0.193,-0.211C0.173,-0.211 0.156,-0.213 0.143,-0.218C0.138,-0.219 0.134,-0.22 0.131,-0.22C0.122,-0.22 0.115,-0.216 0.11,-0.208C0.105,-0.199 0.103,-0.188 0.103,-0.175C0.103,-0.148 0.114,-0.127 0.135,-0.11C0.156,-0.093 0.184,-0.085 0.22,-0.085C0.277,-0.085 0.329,-0.104 0.378,-0.142C0.427,-0.18 0.466,-0.232 0.497,-0.298C0.503,-0.31 0.51,-0.319 0.52,-0.325C0.529,-0.331 0.538,-0.334 0.549,-0.334C0.563,-0.334 0.575,-0.329 0.586,-0.32C0.597,-0.31 0.602,-0.298 0.602,-0.283C0.602,-0.275 0.6,-0.266 0.596,-0.257C0.559,-0.172 0.509,-0.106 0.446,-0.058C0.383,-0.009 0.307,0.015 0.22,0.015ZM0.205,-0.306C0.228,-0.306 0.25,-0.311 0.269,-0.321C0.288,-0.33 0.305,-0.343 0.319,-0.359C0.338,-0.38 0.348,-0.401 0.348,-0.42C0.348,-0.432 0.344,-0.442 0.337,-0.449C0.329,-0.456 0.318,-0.46 0.305,-0.46C0.279,-0.46 0.252,-0.446 0.224,-0.418C0.196,-0.39 0.175,-0.363 0.16,-0.336C0.157,-0.329 0.155,-0.325 0.155,-0.323C0.155,-0.312 0.172,-0.306 0.205,-0.306Z" style="fill:rgb(254,190,152);fill-rule:nonzero;"/>
            </g>
            <g transform="matrix(278.298,0,0,278.298,416.676,642.182)">
                <path d="M0.121,0.015C0.074,0.015 0.037,0 0.008,-0.03C-0.021,-0.059 -0.035,-0.096 -0.035,-0.141C-0.035,-0.17 -0.028,-0.199 -0.015,-0.23L0.286,-0.889C0.295,-0.91 0.31,-0.92 0.33,-0.92C0.344,-0.92 0.357,-0.915 0.368,-0.905C0.379,-0.894 0.385,-0.881 0.385,-0.866C0.385,-0.858 0.384,-0.851 0.381,-0.845L0.085,-0.187C0.078,-0.172 0.075,-0.159 0.075,-0.147C0.075,-0.132 0.08,-0.119 0.09,-0.109C0.099,-0.099 0.113,-0.094 0.132,-0.094C0.162,-0.094 0.192,-0.108 0.223,-0.137C0.253,-0.165 0.284,-0.213 0.315,-0.281C0.32,-0.292 0.326,-0.3 0.335,-0.305C0.343,-0.31 0.352,-0.312 0.362,-0.312C0.377,-0.312 0.39,-0.307 0.402,-0.298C0.413,-0.288 0.419,-0.276 0.419,-0.261C0.419,-0.255 0.417,-0.248 0.414,-0.239C0.377,-0.154 0.331,-0.09 0.278,-0.048C0.225,-0.006 0.172,0.015 0.121,0.015Z" style="fill:rgb(254,190,152);fill-rule:nonzero;"/>
            </g>
            <g transform="matrix(278.298,0,0,278.298,502.113,642.182)">
                <path d="M0.245,-0.617C0.228,-0.617 0.214,-0.623 0.203,-0.635C0.192,-0.646 0.186,-0.66 0.186,-0.676C0.186,-0.692 0.192,-0.706 0.204,-0.718C0.215,-0.729 0.229,-0.735 0.245,-0.735C0.261,-0.735 0.275,-0.729 0.287,-0.718C0.298,-0.706 0.304,-0.692 0.304,-0.676C0.304,-0.66 0.298,-0.646 0.287,-0.635C0.275,-0.623 0.261,-0.617 0.245,-0.617ZM0.12,0.015C0.089,0.015 0.061,0.008 0.038,-0.006C0.014,-0.02 -0.005,-0.039 -0.018,-0.063C-0.031,-0.086 -0.037,-0.112 -0.037,-0.141C-0.037,-0.17 -0.03,-0.2 -0.016,-0.23L0.125,-0.529C0.134,-0.55 0.149,-0.56 0.17,-0.56C0.184,-0.56 0.197,-0.555 0.208,-0.545C0.219,-0.534 0.224,-0.521 0.224,-0.506C0.224,-0.498 0.223,-0.491 0.22,-0.485L0.084,-0.187C0.077,-0.172 0.074,-0.159 0.074,-0.147C0.074,-0.132 0.079,-0.119 0.089,-0.109C0.098,-0.099 0.112,-0.094 0.131,-0.094C0.161,-0.094 0.191,-0.108 0.222,-0.137C0.252,-0.165 0.283,-0.213 0.314,-0.281C0.319,-0.292 0.325,-0.3 0.334,-0.305C0.342,-0.31 0.351,-0.312 0.361,-0.312C0.376,-0.312 0.389,-0.307 0.401,-0.298C0.412,-0.288 0.418,-0.276 0.418,-0.261C0.418,-0.255 0.416,-0.248 0.413,-0.239C0.375,-0.154 0.329,-0.09 0.277,-0.048C0.224,-0.006 0.171,0.015 0.12,0.015Z" style="fill:rgb(254,190,152);fill-rule:nonzero;"/>
            </g>
            <g transform="matrix(278.298,0,0,278.298,587.273,642.182)">
                <path d="M0.683,-0.281C0.688,-0.292 0.694,-0.3 0.703,-0.305C0.711,-0.31 0.72,-0.312 0.73,-0.312C0.745,-0.312 0.758,-0.307 0.77,-0.298C0.781,-0.288 0.787,-0.276 0.787,-0.261C0.787,-0.255 0.785,-0.248 0.782,-0.239C0.744,-0.154 0.699,-0.09 0.646,-0.048C0.593,-0.006 0.54,0.015 0.489,0.015C0.458,0.015 0.43,0.008 0.406,-0.006C0.382,-0.02 0.364,-0.039 0.352,-0.063C0.333,-0.046 0.311,-0.03 0.288,-0.017C0.261,-0.002 0.236,0.008 0.211,0.011C0.204,0.012 0.193,0.013 0.178,0.013C0.149,0.013 0.122,0.007 0.098,-0.005C0.067,-0.021 0.044,-0.046 0.027,-0.08C0.01,-0.114 0.001,-0.153 0.001,-0.197C0.001,-0.242 0.01,-0.286 0.028,-0.331C0.045,-0.376 0.069,-0.416 0.1,-0.453C0.13,-0.489 0.164,-0.517 0.201,-0.538C0.238,-0.559 0.275,-0.569 0.311,-0.569C0.339,-0.569 0.365,-0.562 0.39,-0.549C0.423,-0.531 0.448,-0.504 0.465,-0.467L0.494,-0.529C0.499,-0.54 0.505,-0.548 0.513,-0.553C0.521,-0.558 0.529,-0.561 0.538,-0.561C0.552,-0.561 0.565,-0.556 0.576,-0.546C0.587,-0.535 0.592,-0.522 0.592,-0.507C0.592,-0.499 0.591,-0.492 0.588,-0.486L0.452,-0.188C0.446,-0.175 0.443,-0.162 0.443,-0.148C0.443,-0.133 0.448,-0.12 0.458,-0.11C0.467,-0.099 0.481,-0.094 0.5,-0.094C0.53,-0.094 0.56,-0.108 0.591,-0.137C0.621,-0.165 0.652,-0.213 0.683,-0.281ZM0.238,-0.108C0.279,-0.13 0.313,-0.165 0.341,-0.213C0.369,-0.261 0.383,-0.309 0.383,-0.356C0.383,-0.381 0.379,-0.403 0.372,-0.42C0.364,-0.436 0.354,-0.448 0.341,-0.453C0.332,-0.457 0.317,-0.459 0.294,-0.459C0.284,-0.458 0.27,-0.453 0.251,-0.442C0.21,-0.419 0.175,-0.383 0.148,-0.336C0.12,-0.288 0.106,-0.241 0.106,-0.194C0.106,-0.169 0.11,-0.149 0.117,-0.133C0.124,-0.116 0.135,-0.105 0.148,-0.098C0.157,-0.093 0.167,-0.09 0.179,-0.09C0.196,-0.09 0.216,-0.096 0.238,-0.108Z" style="fill:rgb(254,190,152);fill-rule:nonzero;"/>
            </g>
            <g id="Layer1" transform="matrix(3.45457,0,0,3.13969,35.0288,126.572)">
                <clipPath id="_clip2">
                    <path d="M194.797,58.94C232.914,95.931 233.879,156.858 196.95,194.911L193.486,198.48C156.557,236.533 95.629,237.394 57.512,200.402C19.394,163.41 18.43,102.484 55.358,64.431L58.823,60.862C95.752,22.809 156.68,21.948 194.797,58.94Z"/>
                </clipPath>
                <g clip-path="url(#_clip2)">
                    <path d="M128,46.377L128,81.623C128,107.219 109.113,128 85.85,128L42.15,128C18.887,128 0,107.219 0,81.623L0,46.377C0,20.781 18.887,0 42.15,0L85.85,0C109.113,0 128,20.781 128,46.377Z" style="fill:rgb(146,223,213);"/>
                    <g transform="matrix(1,0,0,1,128,2.84217e-14)">
                        <path d="M128,46.377L128,81.623C128,107.219 109.113,128 85.85,128L42.15,128C18.887,128 0,107.219 0,81.623L0,46.377C0,20.781 18.887,0 42.15,0L85.85,0C109.113,0 128,20.781 128,46.377Z" style="fill:rgb(243,131,131);"/>
                    </g>
                    <g transform="matrix(1,0,0,1,2.84217e-14,128)">
                        <path d="M128,46.377L128,81.623C128,107.219 109.113,128 85.85,128L42.15,128C18.887,128 0,107.219 0,81.623L0,46.377C0,20.781 18.887,0 42.15,0L85.85,0C109.113,0 128,20.781 128,46.377Z" style="fill:rgb(234,243,145);"/>
                    </g>
                    <g transform="matrix(1,0,0,1,128,128)">
                        <path d="M128,46.377L128,81.623C128,107.219 109.113,128 85.85,128L42.15,128C18.887,128 0,107.219 0,81.623L0,46.377C0,20.781 18.887,0 42.15,0L85.85,0C109.113,0 128,20.781 128,46.377Z" style="fill:rgb(255,166,213);"/>
                    </g>
                </g>
            </g>
        </g>
    </g>
    <circle cx="1689.82" cy="348" r="17.439" style="fill:rgb(255,166,213);stroke:rgb(255,166,213);stroke-width:2.93px;"/>
    <circle cx="1787" cy="383" r="10" style="fill:rgb(255,166,213);stroke:rgb(255,166,213);stroke-width:2.93px;"/>
    <circle cx="1750" cy="330.561" r="8.439" style="fill:rgb(255,166,213);stroke:rgb(255,166,213);stroke-width:2.93px;"/>
    <g transform="matrix(1,0,0,1,-57,-21)">
        <path d="M530,471C537.175,471 543,477.044 543,484.489C543,491.934 537.175,497.978 530,497.978C522.825,497.978 518.059,491.011 518.059,483.567C518.059,476.122 522.825,471 530,471Z" style="fill:rgb(234,243,145);"/>
    </g>
    <g transform="matrix(0.637732,0,0,0.637732,89.6569,221.178)">
        <path d="M530,467.864C537.175,467.864 543,477.044 543,484.489C543,491.934 537.175,497.978 530,497.978C522.825,497.978 517,491.934 517,484.489C517,477.044 522.825,467.864 530,467.864Z" style="fill:rgb(234,243,145);"/>
    </g>
    <g transform="matrix(0.740528,0,0,0.740528,33.1472,135.189)">
        <path d="M530,471C537.175,471 543,477.044 543,484.489C543,491.934 537.175,497.978 530,497.978C522.825,497.978 517.621,487.985 517.621,480.54C517.621,473.095 522.825,471 530,471Z" style="fill:rgb(234,243,145);"/>
    </g>
    <g transform="matrix(0.777595,0,0,0.777595,131.983,137.708)">
        <ellipse cx="530" cy="484.489" rx="13" ry="13.489" style="fill:rgb(234,243,145);"/>
    </g>
</svg>
