<?xml version="1.0" encoding="UTF-8" standalone="no"?><!DOCTYPE svg PUBLIC "-//W3C//DTD SVG 1.1//EN" "http://www.w3.org/Graphics/SVG/1.1/DTD/svg11.dtd"><svg width="100%" height="100%" viewBox="0 0 8000 3750" version="1.1" xmlns="http://www.w3.org/2000/svg" xmlns:xlink="http://www.w3.org/1999/xlink" xml:space="preserve" xmlns:serif="http://www.serif.com/" style="fill-rule:evenodd;clip-rule:evenodd;stroke-linecap:round;stroke-linejoin:round;stroke-miterlimit:1.5;"><path d="M7846.96,490.953l0,2768.09c0,194.441 -157.861,352.303 -352.303,352.303l-6989.32,0c-194.442,0 -352.303,-157.862 -352.303,-352.303l-0,-2768.09c-0,-194.441 157.861,-352.303 352.303,-352.303l6989.32,-0c194.442,-0 352.303,157.862 352.303,352.303Z" style="fill:#211c22;stroke:#1c1e22;stroke-width:4.17px;"/><circle cx="7291.67" cy="2145.23" r="70.323" style="fill:#ffa6d5;stroke:#ffa6d5;stroke-width:12.2px;"/><circle cx="6850" cy="1987.41" r="58.333" style="fill:#ffa6d5;stroke:#ffa6d5;stroke-width:12.2px;"/><path d="M7231.63,1672.57c7.153,3.521 14.689,6.353 21.46,10.564c6.079,3.78 40.803,25.375 52.319,72.598c5.604,22.985 2.605,42.156 2.038,45.777c-2.719,17.378 -2.968,17.461 -11.25,32.983c-48.985,91.804 -119.29,196.015 -191.725,260.318c-8.421,7.475 -13.92,12.483 -14.091,12.608c-18.376,13.457 -38.009,14.447 -41.526,14.624c-3.51,0.177 -23.15,1.168 -42.69,-10.377c-2.118,-1.251 -13.473,-7.961 -22.803,-20.614c-13.531,-18.35 -14.521,-37.983 -14.698,-41.5c-0.177,-3.514 -1.167,-23.15 10.451,-42.716c0.914,-1.539 2.162,-0.653 12.809,-18.341c28.814,-47.873 63.12,-131.325 86.943,-244.112c2.75,-13.016 4.037,-12.583 11.077,-23.867c3.784,-6.067 25.364,-40.66 72.663,-52.05c23.027,-5.544 42.251,-2.513 45.88,-1.94l23.143,6.045Z" style="fill:#ffa6d5;"/><path d="M1848.04,2103.64c3.179,-4.396 5.944,-9.124 9.537,-13.189c15.857,-17.939 35.665,-23.354 39.227,-24.328c3.532,-0.966 23.36,-6.386 45.751,1.097c11.618,3.883 11.601,4.172 21.163,11.844c34.61,27.772 176.505,146.026 306.16,172.264c7.985,1.616 8.131,1.425 15.069,5.659c1.882,1.148 12.94,7.897 17.145,21.573c0.022,0.071 1.364,13.538 1.352,13.572c-1.455,4.309 -2.105,8.985 -4.382,12.923c-7.191,12.437 -19.477,16.459 -21.573,17.145c-8.606,2.818 -8.744,2.395 -17.79,1.918c-117.006,-6.159 -255.503,-60.027 -375.657,-107.767c-11.421,-4.538 -11.674,-4.36 -20.841,-12.563c-17.587,-15.737 -22.699,-35.658 -23.609,-39.205c-0.918,-3.576 -6.019,-23.456 1.713,-46.126l6.735,-14.817Z" style="fill:#eaf391;"/><g transform="matrix(8.94096,0,0,8.94096,-225.62,-2649.97)"><clipPath id="_clip1"><path d="M213.239,646.356c-15.399,0 -28.711,-3.757 -39.935,-11.271c-11.225,-7.514 -19.76,-17.996 -25.604,-31.447c-5.844,-13.451 -8.766,-28.99 -8.766,-46.615c-0,-22.45 4.731,-46.569 14.193,-72.358c8.163,-22.264 18.971,-42.44 32.422,-60.53c13.451,-18.089 28.154,-32.329 44.11,-42.719c15.956,-10.389 31.541,-15.584 46.754,-15.584c11.689,-0 21.615,2.551 29.778,7.653c8.164,5.102 14.24,11.874 18.229,20.316c3.989,8.441 5.983,17.579 5.983,27.412c0,11.874 -2.69,23.331 -8.071,34.37c-5.38,11.039 -13.265,20.037 -23.655,26.995c-10.39,6.957 -22.635,10.436 -36.735,10.436c-5.381,0 -9.463,-1.438 -12.246,-4.314c-2.782,-2.875 -4.174,-6.261 -4.174,-10.157c0,-3.897 1.252,-7.329 3.757,-10.298c2.505,-2.968 5.705,-4.452 9.601,-4.452c9.462,-0 17.44,-1.902 23.934,-5.705c6.494,-3.804 11.317,-8.72 14.472,-14.75c3.154,-6.03 4.731,-12.292 4.731,-18.785c-0,-8.164 -2.273,-15.121 -6.819,-20.873c-4.545,-5.751 -10.807,-8.627 -18.785,-8.627c-10.019,-0 -21.058,4.36 -33.117,13.08c-12.06,8.72 -23.656,20.919 -34.788,36.596c-11.132,15.678 -20.223,33.442 -27.273,53.294c-7.792,21.522 -11.688,41.189 -11.688,59c-0,18.738 4.22,33.442 12.662,44.11c8.442,10.668 19.713,16.002 33.813,16.002c13.73,0 26.81,-4.731 39.24,-14.193c12.431,-9.462 22.635,-23.006 30.613,-40.632c1.299,-2.968 3.154,-5.241 5.566,-6.818c2.412,-1.577 5.01,-2.366 7.793,-2.366c3.896,0 7.421,1.438 10.575,4.314c3.154,2.876 4.731,6.355 4.731,10.436c0,2.598 -0.464,4.824 -1.391,6.679c-9.648,22.264 -22.728,39.797 -39.241,52.599c-16.512,12.802 -36.735,19.202 -60.669,19.202Zm130.801,0c-22.079,0 -38.684,-5.844 -49.816,-17.532c-8.905,-10.019 -13.358,-22.45 -13.358,-37.292c-0,-1.67 0.185,-4.546 0.557,-8.628c1.484,-14.471 6.447,-29.175 14.888,-44.11c8.442,-14.935 19.064,-27.273 31.866,-37.014c12.801,-9.74 26.345,-14.61 40.631,-14.61c11.874,-0 21.151,3.386 27.83,10.158c6.679,6.772 10.019,15.167 10.019,25.186c-0,5.937 -1.299,12.059 -3.896,18.367c-2.598,6.308 -6.308,12.153 -11.132,17.533c-7.607,8.535 -16.374,14.843 -26.299,18.924c-9.926,4.082 -19.528,6.123 -28.804,6.123c-5.566,0 -10.205,-0.649 -13.915,-1.948c-1.485,-0.371 -2.598,-0.557 -3.34,-0.557c-2.597,0 -4.545,1.16 -5.844,3.479c-1.299,2.319 -1.948,5.334 -1.948,9.045c-0,7.421 2.922,13.451 8.766,18.089c5.844,4.638 13.776,6.958 23.795,6.958c15.77,-0 30.427,-5.288 43.971,-15.863c13.544,-10.576 24.583,-25.047 33.117,-43.415c1.67,-3.34 3.757,-5.844 6.262,-7.514c2.505,-1.67 5.241,-2.505 8.21,-2.505c3.896,0 7.328,1.345 10.297,4.036c2.968,2.69 4.453,6.076 4.453,10.158c-0,2.226 -0.557,4.638 -1.67,7.235c-10.39,23.563 -24.351,42.07 -41.884,55.521c-17.533,13.451 -38.452,20.176 -62.756,20.176Zm-4.175,-89.333c6.494,-0 12.431,-1.345 17.811,-4.036c5.381,-2.69 10.019,-6.261 13.915,-10.714c5.381,-5.937 8.071,-11.596 8.071,-16.976c-0,-3.34 -1.067,-6.03 -3.201,-8.071c-2.133,-2.041 -5.055,-3.061 -8.766,-3.061c-7.236,-0 -14.75,3.896 -22.542,11.688c-7.792,7.793 -13.73,15.399 -17.811,22.821c-0.928,1.855 -1.392,3.061 -1.392,3.618c0,3.154 4.639,4.731 13.915,4.731Zm110.485,89.333c-12.988,0 -23.47,-4.128 -31.448,-12.384c-7.978,-8.256 -11.967,-18.599 -11.967,-31.03c0,-7.978 1.855,-16.234 5.566,-24.769l83.768,-183.398c2.597,-5.752 6.679,-8.628 12.245,-8.628c3.896,0 7.421,1.438 10.575,4.314c3.154,2.876 4.732,6.447 4.732,10.715c-0,2.226 -0.372,4.174 -1.114,5.844l-82.376,183.12c-1.855,4.082 -2.783,7.793 -2.783,11.132c-0,4.267 1.345,7.792 4.035,10.575c2.691,2.783 6.633,4.175 11.828,4.175c8.349,-0 16.744,-3.943 25.186,-11.828c8.442,-7.885 17.023,-21.29 25.743,-40.214c1.298,-2.968 3.107,-5.148 5.426,-6.54c2.32,-1.391 4.871,-2.087 7.654,-2.087c4.081,-0 7.746,1.345 10.992,4.035c3.247,2.69 4.871,6.076 4.871,10.158c-0,1.67 -0.464,3.711 -1.392,6.123c-10.39,23.748 -23.006,41.466 -37.848,53.155c-14.843,11.688 -29.407,17.532 -43.693,17.532Zm119.946,-175.884c-4.638,-0 -8.534,-1.624 -11.688,-4.87c-3.154,-3.247 -4.731,-7.097 -4.731,-11.55c-0,-4.453 1.623,-8.302 4.87,-11.549c3.247,-3.247 7.097,-4.87 11.549,-4.87c4.453,-0 8.303,1.623 11.55,4.87c3.247,3.247 4.87,7.096 4.87,11.549c-0,4.453 -1.623,8.303 -4.87,11.55c-3.247,3.246 -7.097,4.87 -11.55,4.87Zm-34.787,175.884c-8.72,0 -16.373,-1.948 -22.96,-5.844c-6.586,-3.896 -11.688,-9.137 -15.306,-15.724c-3.618,-6.586 -5.427,-13.868 -5.427,-21.846c0,-8.163 1.948,-16.42 5.844,-24.769l39.241,-83.211c2.597,-5.751 6.771,-8.627 12.523,-8.627c3.896,-0 7.375,1.438 10.436,4.313c3.061,2.876 4.592,6.448 4.592,10.715c0,2.226 -0.371,4.174 -1.113,5.844l-37.849,82.933c-1.855,4.082 -2.783,7.793 -2.783,11.132c0,4.267 1.345,7.792 4.036,10.575c2.69,2.783 6.632,4.175 11.827,4.175c8.349,-0 16.745,-3.943 25.186,-11.828c8.442,-7.885 17.023,-21.29 25.743,-40.214c1.299,-2.968 3.108,-5.148 5.427,-6.54c2.319,-1.391 4.87,-2.087 7.653,-2.087c4.082,-0 7.746,1.345 10.993,4.035c3.247,2.69 4.87,6.076 4.87,10.158c-0,1.67 -0.464,3.711 -1.391,6.123c-10.576,23.748 -23.238,41.466 -37.988,53.155c-14.75,11.688 -29.268,17.532 -43.554,17.532Zm241.841,-82.376c1.299,-2.968 3.108,-5.148 5.427,-6.54c2.319,-1.391 4.87,-2.087 7.653,-2.087c4.082,-0 7.746,1.345 10.993,4.035c3.247,2.69 4.87,6.076 4.87,10.158c0,1.67 -0.463,3.711 -1.391,6.123c-10.575,23.748 -23.238,41.466 -37.988,53.155c-14.75,11.688 -29.267,17.532 -43.553,17.532c-8.72,0 -16.42,-1.948 -23.099,-5.844c-6.679,-3.896 -11.689,-9.184 -15.028,-15.863c-5.381,4.824 -11.318,9.091 -17.811,12.802c-7.422,4.267 -14.565,6.865 -21.429,7.792c-2.041,0.371 -5.103,0.557 -9.184,0.557c-8.164,-0 -15.585,-1.67 -22.264,-5.009c-8.535,-4.453 -15.167,-11.411 -19.899,-20.873c-4.731,-9.462 -7.096,-20.316 -7.096,-32.561c-0,-12.43 2.458,-24.861 7.375,-37.292c4.916,-12.43 11.596,-23.702 20.037,-33.813c8.442,-10.112 17.858,-18.043 28.248,-23.795c10.389,-5.751 20.594,-8.627 30.612,-8.627c7.793,0 15.121,1.855 21.986,5.566c9.091,5.01 16.049,12.616 20.872,22.821l8.071,-17.255c1.299,-2.968 3.061,-5.195 5.288,-6.679c2.226,-1.484 4.545,-2.226 6.957,-2.226c3.896,-0 7.375,1.437 10.436,4.313c3.062,2.876 4.592,6.447 4.592,10.715c0,2.226 -0.371,4.174 -1.113,5.844l-37.849,82.933c-1.669,3.525 -2.504,7.236 -2.504,11.132c-0,4.267 1.345,7.839 4.035,10.714c2.69,2.876 6.633,4.314 11.828,4.314c8.349,-0 16.744,-3.943 25.186,-11.828c8.442,-7.885 17.022,-21.29 25.742,-40.214Zm-123.842,48.146c11.317,-6.123 20.872,-15.863 28.664,-29.222c7.793,-13.358 11.689,-26.623 11.689,-39.796c-0,-7.05 -1.067,-12.941 -3.201,-17.672c-2.133,-4.731 -4.963,-7.839 -8.488,-9.323c-2.412,-1.113 -6.772,-1.67 -13.08,-1.67c-2.783,0.186 -6.772,1.763 -11.967,4.731c-11.503,6.494 -21.104,16.373 -28.803,29.639c-7.7,13.265 -11.55,26.392 -11.55,39.379c0,6.865 1.021,12.57 3.061,17.115c2.041,4.546 4.917,7.746 8.628,9.602c2.412,1.484 5.287,2.226 8.627,2.226c4.824,0 10.297,-1.67 16.42,-5.009Z" clip-rule="nonzero"/></clipPath><g clip-path="url(#_clip1)"><g transform="matrix(278.298,0,0,278.298,775.124,642.182)"></g><text x="138.934px" y="642.182px" style="font-family:'Montebello-Script', 'Montebello';font-size:278.298px;fill:#febe98;">Celia</text><g id="Layer1" transform="matrix(3.45457,0,0,3.13969,35.0288,126.572)"><g><clipPath id="_clip2"><path d="M194.797,58.94c38.117,36.991 39.082,97.918 2.153,135.971l-3.464,3.569c-36.929,38.053 -97.857,38.914 -135.974,1.922c-38.118,-36.992 -39.082,-97.918 -2.154,-135.971l3.465,-3.569c36.929,-38.053 97.857,-38.914 135.974,-1.922Z"/></clipPath><g clip-path="url(#_clip2)"><path d="M128,46.377l0,35.246c0,25.596 -18.887,46.377 -42.15,46.377l-43.7,0c-23.263,0 -42.15,-20.781 -42.15,-46.377l0,-35.246c0,-25.596 18.887,-46.377 42.15,-46.377l43.7,0c23.263,0 42.15,20.781 42.15,46.377Z" style="fill:#92dfd5;"/><g transform="matrix(1,0,0,1,128,2.84217e-14)"><path d="M128,46.377l0,35.246c0,25.596 -18.887,46.377 -42.15,46.377l-43.7,0c-23.263,0 -42.15,-20.781 -42.15,-46.377l0,-35.246c0,-25.596 18.887,-46.377 42.15,-46.377l43.7,0c23.263,0 42.15,20.781 42.15,46.377Z" style="fill:#f38383;"/></g><g transform="matrix(1,0,0,1,2.84217e-14,128)"><path d="M128,46.377l0,35.246c0,25.596 -18.887,46.377 -42.15,46.377l-43.7,0c-23.263,0 -42.15,-20.781 -42.15,-46.377l0,-35.246c0,-25.596 18.887,-46.377 42.15,-46.377l43.7,0c23.263,0 42.15,20.781 42.15,46.377Z" style="fill:#eaf391;"/></g><g transform="matrix(1,0,0,1,128,128)"><path d="M128,46.377l0,35.246c0,25.596 -18.887,46.377 -42.15,46.377l-43.7,0c-23.263,0 -42.15,-20.781 -42.15,-46.377l0,-35.246c0,-25.596 18.887,-46.377 42.15,-46.377l43.7,0c23.263,0 42.15,20.781 42.15,46.377Z" style="fill:#ffa6d5;"/></g></g></g></g></g></g><circle cx="7040.93" cy="1450" r="72.662" style="fill:#ffa6d5;stroke:#ffa6d5;stroke-width:12.2px;"/><circle cx="7445.83" cy="1595.83" r="41.667" style="fill:#ffa6d5;stroke:#ffa6d5;stroke-width:12.2px;"/><circle cx="7291.67" cy="1377.34" r="35.162" style="fill:#ffa6d5;stroke:#ffa6d5;stroke-width:12.2px;"/><path d="M1970.83,1875c29.896,0 54.167,25.184 54.167,56.204c0,31.02 -24.271,56.204 -54.167,56.204c-29.895,-0 -49.753,-29.028 -49.753,-60.047c-0,-31.02 19.858,-52.361 49.753,-52.361Z" style="fill:#eaf391;"/><path d="M1781.9,2164.79c19.066,0 34.544,24.394 34.544,44.176c0,19.783 -15.478,35.843 -34.544,35.843c-19.065,0 -34.544,-16.06 -34.544,-35.843c0,-19.782 15.479,-44.176 34.544,-44.176Z" style="fill:#eaf391;"/><path d="M1773.44,2016.57c22.139,0 40.112,18.65 40.112,41.621c0,22.971 -17.973,41.62 -40.112,41.62c-22.138,0 -38.197,-30.834 -38.197,-53.805c0,-22.971 16.059,-29.436 38.197,-29.436Z" style="fill:#eaf391;"/><ellipse cx="2267.12" cy="2143.52" rx="42.12" ry="43.704" style="fill:#eaf391;"/></svg>